{"title":"War in the Pacific v.3.mp4,dvd.rip","uid":8942935,"size":1137022935,"categoryP":"video","categoryS":"movies","magnet":"?xt=urn:btih:e8fe25f490b21e8e3ec9b76bc9123c11d2ed6f33&amp;dn=War+in+the+Pacific+v.3.mp4%2Cdvd.rip&amp;tr=udp%3A%2F%2Ftracker.openbittorrent.com%3A80&amp;tr=udp%3A%2F%2Fopen.demonii.com%3A1337&amp;tr=udp%3A%2F%2Ftracker.coppersurfer.tk%3A6969&amp;tr=udp%3A%2F%2Fexodus.desync.com%3A6969","seeders":0,"leechers":1,"uploader":null,"files":8,"time":1379709636,"description":"Complete name       :War in the Pacific v.3 PACIFICV3_.mp4_dvd_rip\nFormat                                   : MPEG-4\nFormat profile                           : Base Media\nCodec ID                                 : isom\nFile size                                : 1.05 GiB\nDuration                                 : 1h 32mn\nOverall bit rate                         : 1 631 Kbps\nMovie name                               : PACIFICV3\nGenre                                    : War_Documentary\nWriting application                      : Lavf54.46.100\nIMDB                                            NO\n\nID                                       : 1\nFormat                                   : MPEG-4 Visual\nFormat settings, BVOP                    : No\nFormat settings, QPel                    : No\nFormat settings, GMC                     : No warppoints\nFormat settings, Matrix                  : Default (H.263)\nCodec ID                                 : 20\nDuration                                 : 1h 32mn\nBit rate mode                            : Constant\nBit rate                                 : 1 498 Kbps\nWidth                                    : 720 pixels\nHeight                                   : 540 pixels\nDisplay aspect ratio                     : 4:3\nFrame rate mode                          : Constant\nFrame rate                               : 25.000 fps\nColor space                              : YUV\nChroma subsampling                       : 4:2:0\nBit depth                                : 8 bits\nScan type                                : Progressive\nCompression mode                         : Lossy\nBits/(Pixel*Frame)                       : 0.154\nStream size                              : 991 MiB (92%)\nWriting library                          : Lavc54.79.100\n\nID                                       : 2\nFormat                                   : AAC\nFormat/Info                              : Advanced Audio Codec\nFormat profile                           : LC\nCodec ID                                 : 40\nDuration                                 : 1h 32mn\nBit rate mode                            : Constant\nBit rate                                 : 128 Kbps\nChannel(s)                               : 2 channels\nChannel positions                        : Front: L R\nSampling rate                            : 44.1 KHz\nCompression mode                         : Lossy\nStream size                              : 84.7 MiB (8%)","torrent":{"xt":"urn:btih:e8fe25f490b21e8e3ec9b76bc9123c11d2ed6f33","amp;dn":"War+in+the+Pacific+v.3.mp4%2Cdvd.rip","amp;tr":["udp%3A%2F%2Ftracker.openbittorrent.com%3A80","udp%3A%2F%2Fopen.demonii.com%3A1337","udp%3A%2F%2Ftracker.coppersurfer.tk%3A6969","udp%3A%2F%2Fexodus.desync.com%3A6969"],"infoHash":"e8fe25f490b21e8e3ec9b76bc9123c11d2ed6f33","infoHashBuffer":{"type":"Buffer","data":[232,254,37,244,144,178,30,142,62,201,183,107,201,18,60,17,210,237,111,51]},"announce":[],"urlList":[]}}